<svg width="57" height="56" viewBox="0 0 57 56" fill="none" xmlns="http://www.w3.org/2000/svg">
<rect x="0.5" width="56" height="56" rx="28" fill="#FAF1EB"/>
<path fill-rule="evenodd" clip-rule="evenodd" d="M27.511 17.9027C28.0577 17.356 28.9441 17.356 29.4909 17.9027L37.8909 26.3027C38.4376 26.8495 38.4376 27.7359 37.8909 28.2826C37.3442 28.8294 36.4577 28.8294 35.911 28.2826L29.9009 22.2726V37.0927C29.9009 37.8659 29.2741 38.4927 28.5009 38.4927C27.7277 38.4927 27.1009 37.8659 27.1009 37.0927V22.2726L21.0909 28.2826C20.5441 28.8294 19.6577 28.8294 19.111 28.2826C18.5642 27.7359 18.5642 26.8495 19.111 26.3027L27.511 17.9027Z" fill="#CC703C"/>
</svg>
