<svg width="57" height="56" viewBox="0 0 57 56" fill="none" xmlns="http://www.w3.org/2000/svg">
<rect x="0.5" width="56" height="56" rx="28" fill="#FAF1EB"/>
<path fill-rule="evenodd" clip-rule="evenodd" d="M28.5009 17.4927C29.2741 17.4927 29.9009 18.1195 29.9009 18.8927V33.7128L35.911 27.7027C36.4577 27.156 37.3442 27.156 37.8909 27.7027C38.4376 28.2495 38.4376 29.1359 37.8909 29.6826L29.4909 38.0826C28.9441 38.6294 28.0577 38.6294 27.511 38.0826L19.111 29.6826C18.5642 29.1359 18.5642 28.2495 19.111 27.7027C19.6577 27.156 20.5441 27.156 21.0909 27.7027L27.1009 33.7128V18.8927C27.1009 18.1195 27.7277 17.4927 28.5009 17.4927Z" fill="#CC703C"/>
</svg>
