<svg width="24" height="24" viewBox="0 0 24 24" fill="none" xmlns="http://www.w3.org/2000/svg">
<circle cx="12" cy="12" r="12" fill="#FAFAFA"/>
<g clip-path="url(#clip0_576_10083)">
<path fill-rule="evenodd" clip-rule="evenodd" d="M17.9736 8.18638C18.1555 8.34549 18.1739 8.62189 18.0148 8.80373L11.8898 15.8037C11.8101 15.8949 11.6961 15.9489 11.5751 15.9529C11.4541 15.9569 11.3368 15.9106 11.2512 15.825L8.62619 13.2C8.45533 13.0291 8.45533 12.7521 8.62619 12.5813C8.79704 12.4104 9.07405 12.4104 9.2449 12.5813L11.5392 14.8756L17.3563 8.22754C17.5154 8.04569 17.7918 8.02727 17.9736 8.18638Z" fill="#29d79f"/>
<path fill-rule="evenodd" clip-rule="evenodd" d="M6.00119 12.5813C6.17204 12.4104 6.44905 12.4104 6.61991 12.5813L9.2449 15.2063C9.41576 15.3771 9.41576 15.6541 9.2449 15.825C9.07405 15.9958 8.79704 15.9958 8.62619 15.825L6.00119 13.2C5.83033 13.0291 5.83033 12.7521 6.00119 12.5813Z" fill="#29d79f"/>
<path fill-rule="evenodd" clip-rule="evenodd" d="M15.348 8.18586C15.5302 8.34464 15.5491 8.621 15.3903 8.80313L11.6716 13.0688C11.5128 13.2509 11.2364 13.2698 11.0543 13.111C10.8722 12.9523 10.8532 12.6759 11.012 12.4938L14.7308 8.22813C14.8895 8.046 15.1659 8.02708 15.348 8.18586Z" fill="#29d79f"/>
</g>
<defs>
<clipPath id="clip0_576_10083">
<rect width="14" height="14" fill="white" transform="translate(4.99805 5.01562)"/>
</clipPath>
</defs>
</svg>
