<svg width="24" height="24" viewBox="0 0 24 24" fill="none" xmlns="http://www.w3.org/2000/svg">
<path d="M13.5919 12L18.045 7.54687C18.2564 7.3359 18.3753 7.04962 18.3755 6.75099C18.3758 6.45237 18.2574 6.16587 18.0464 5.95453C17.8355 5.74319 17.5492 5.62431 17.2506 5.62404C16.9519 5.62378 16.6654 5.74215 16.4541 5.95312L12.001 10.4062L7.54785 5.95312C7.33651 5.74178 7.04986 5.62305 6.75097 5.62305C6.45209 5.62305 6.16544 5.74178 5.9541 5.95312C5.74276 6.16447 5.62402 6.45111 5.62402 6.75C5.62402 7.04888 5.74276 7.33553 5.9541 7.54687L10.4072 12L5.9541 16.4531C5.74276 16.6645 5.62402 16.9511 5.62402 17.25C5.62402 17.5489 5.74276 17.8355 5.9541 18.0469C6.16544 18.2582 6.45209 18.3769 6.75097 18.3769C7.04986 18.3769 7.33651 18.2582 7.54785 18.0469L12.001 13.5937L16.4541 18.0469C16.6654 18.2582 16.9521 18.3769 17.251 18.3769C17.5499 18.3769 17.8365 18.2582 18.0478 18.0469C18.2592 17.8355 18.3779 17.5489 18.3779 17.25C18.3779 16.9511 18.2592 16.6645 18.0478 16.4531L13.5919 12Z" fill="#626F81"/>
</svg>
