<svg width="40" height="40" viewBox="0 0 40 40" fill="none" xmlns="http://www.w3.org/2000/svg">
<circle cx="20" cy="20" r="20" fill="#FAFAFA"/>
<path fill-rule="evenodd" clip-rule="evenodd" d="M16.3297 17.6365C15.5345 17.6365 14.7718 17.9524 14.2094 18.5147C13.6471 19.0771 13.3312 19.8397 13.3312 20.635C13.3312 21.4303 13.6471 22.1929 14.2094 22.7553C14.7718 23.3176 15.5345 23.6335 16.3297 23.6335H18.79C19.1722 23.6335 19.482 23.9433 19.482 24.3255C19.482 24.7076 19.1722 25.0174 18.79 25.0174H16.3297C15.1674 25.0174 14.0527 24.5557 13.2309 23.7339C12.409 22.912 11.9473 21.7973 11.9473 20.635C11.9473 19.4727 12.409 18.358 13.2309 17.5362C14.0527 16.7143 15.1674 16.2526 16.3297 16.2526H18.79C19.1722 16.2526 19.482 16.5624 19.482 16.9445C19.482 17.3267 19.1722 17.6365 18.79 17.6365H16.3297Z" fill="#29d79f"/>
<path fill-rule="evenodd" clip-rule="evenodd" d="M21.7885 16.9445C21.7885 16.5624 22.0983 16.2526 22.4805 16.2526H24.9408C26.1031 16.2526 27.2178 16.7143 28.0397 17.5362C28.8615 18.358 29.3233 19.4727 29.3233 20.635C29.3233 21.7973 28.8615 22.912 28.0397 23.7339C27.2178 24.5557 26.1031 25.0174 24.9408 25.0174H22.4805C22.0983 25.0174 21.7885 24.7076 21.7885 24.3255C21.7885 23.9433 22.0983 23.6335 22.4805 23.6335H24.9408C25.7361 23.6335 26.4988 23.3176 27.0611 22.7553C27.6234 22.1929 27.9393 21.4303 27.9393 20.635C27.9393 19.8397 27.6234 19.0771 27.0611 18.5147C26.4988 17.9524 25.7361 17.6365 24.9408 17.6365H22.4805C22.0983 17.6365 21.7885 17.3267 21.7885 16.9445Z" fill="#29d79f"/>
<path fill-rule="evenodd" clip-rule="evenodd" d="M16.3793 20.635C16.3793 20.2528 16.6891 19.943 17.0713 19.943H24.2761C24.6583 19.943 24.9681 20.2528 24.9681 20.635C24.9681 21.0172 24.6583 21.327 24.2761 21.327H17.0713C16.6891 21.327 16.3793 21.0172 16.3793 20.635Z" fill="#29d79f"/>
</svg>
