<svg width="16" height="17" viewBox="0 0 16 17" fill="none" xmlns="http://www.w3.org/2000/svg">
<path fill-rule="evenodd" clip-rule="evenodd" d="M3.49852 1.38281L3.5 1.38281H10.25L10.2514 1.38281C10.8473 1.38451 11.4182 1.62196 11.8395 2.04328C12.2609 2.4646 12.4983 3.03555 12.5 3.63139C12.5 3.63534 12.5 3.63928 12.4999 3.64323L12.4949 3.88281H12.7188C13.9786 3.88281 15 4.90416 15 6.16406V13.1016C15 14.3615 13.9786 15.3828 12.7188 15.3828H5.78125C4.52135 15.3828 3.5 14.3615 3.5 13.1016V12.8828H3.25L3.24858 12.8828C2.65274 12.8811 2.08179 12.6437 1.66047 12.2223C1.23914 11.801 1.0017 11.2301 1 10.6342L1 10.6328V3.88281L1 3.88133C1.00196 3.21929 1.26582 2.58492 1.73396 2.11678C2.2021 1.64864 2.83648 1.38477 3.49852 1.38281ZM4.5 13.1016C4.5 13.8092 5.07364 14.3828 5.78125 14.3828H12.7188C13.4264 14.3828 14 13.8092 14 13.1016V6.16406C14 5.45645 13.4264 4.88281 12.7188 4.88281H11.9861C11.9851 4.88282 11.9841 4.88282 11.9831 4.88281H5.78125C5.07364 4.88281 4.5 5.45645 4.5 6.16406V13.1016ZM11.4947 3.88281H5.78125C4.52135 3.88281 3.5 4.90416 3.5 6.16406V11.8828H3.25081C2.91942 11.8817 2.60191 11.7496 2.36757 11.5152C2.13324 11.2809 2.00111 10.9634 2 10.632V3.88361C2.00136 3.486 2.1599 3.10505 2.44107 2.82388C2.72224 2.54272 3.10319 2.38417 3.50079 2.38281H10.2492C10.5806 2.38393 10.8981 2.51606 11.1324 2.75039C11.3656 2.98359 11.4976 3.29917 11.5 3.62882L11.4947 3.88281Z" fill="#626F81"/>
</svg>
