<svg width="20" height="20" viewBox="0 0 20 20" fill="none" xmlns="http://www.w3.org/2000/svg">
<path fill-rule="evenodd" clip-rule="evenodd" d="M4.37315 1.25L4.375 1.25H12.8125L12.8143 1.25C13.5591 1.25212 14.2728 1.54893 14.7994 2.07558C15.3261 2.60224 15.6229 3.31592 15.625 4.06072C15.625 4.06565 15.625 4.07059 15.6249 4.07552L15.6186 4.375H15.8984C17.4733 4.375 18.75 5.65169 18.75 7.22656V15.8984C18.75 17.4733 17.4733 18.75 15.8984 18.75H7.22656C5.65169 18.75 4.375 17.4733 4.375 15.8984V15.625H4.0625L4.06072 15.625C3.31592 15.6229 2.60224 15.3261 2.07558 14.7994C1.54893 14.2728 1.25212 13.5591 1.25 12.8143L1.25 12.8125V4.375L1.25 4.37315C1.25245 3.54559 1.58228 2.75263 2.16745 2.16745C2.75263 1.58228 3.54559 1.25245 4.37315 1.25ZM5.625 15.8984C5.625 16.783 6.34204 17.5 7.22656 17.5H15.8984C16.783 17.5 17.5 16.783 17.5 15.8984V7.22656C17.5 6.34204 16.783 5.625 15.8984 5.625H14.9826C14.9813 5.625 14.9801 5.625 14.9789 5.625H7.22656C6.34204 5.625 5.625 6.34204 5.625 7.22656V15.8984ZM14.3684 4.375H7.22656C5.65169 4.375 4.375 5.65169 4.375 7.22656V14.375H4.06351C3.64928 14.3736 3.25239 14.2085 2.95947 13.9155C2.66656 13.6226 2.50139 13.2258 2.5 12.8115V4.37599C2.50169 3.87898 2.69988 3.4028 3.05134 3.05134C3.4028 2.69988 3.87898 2.50169 4.37599 2.5H12.8115C13.2258 2.50139 13.6226 2.66656 13.9155 2.95947C14.207 3.25098 14.372 3.64545 14.375 4.05751L14.3684 4.375Z" fill="#CC703C"/>
</svg>
