<svg width="36" height="36" viewBox="0 0 36 36" fill="none" xmlns="http://www.w3.org/2000/svg">
<rect x="0.5" y="0.5" width="35" height="35" rx="17.5" fill="white"/>
<path fill-rule="evenodd" clip-rule="evenodd" d="M18 10.9688C18.5178 10.9688 18.9375 11.3885 18.9375 11.9062V21.8304L22.9621 17.8058C23.3282 17.4397 23.9218 17.4397 24.2879 17.8058C24.654 18.172 24.654 18.7655 24.2879 19.1317L18.6629 24.7567C18.2968 25.1228 17.7032 25.1228 17.3371 24.7567L11.7121 19.1317C11.346 18.7655 11.346 18.172 11.7121 17.8058C12.0782 17.4397 12.6718 17.4397 13.0379 17.8058L17.0625 21.8304V11.9062C17.0625 11.3885 17.4822 10.9688 18 10.9688Z" fill="#CC703C"/>
<rect x="0.5" y="0.5" width="35" height="35" rx="17.5" stroke="#ECECEC"/>
</svg>
