<svg width="24" height="24" viewBox="0 0 24 24" fill="none" xmlns="http://www.w3.org/2000/svg">
<circle cx="12" cy="12" r="12" fill="#FAFAFA"/>
<g clip-path="url(#clip0_576_10077)">
<path fill-rule="evenodd" clip-rule="evenodd" d="M4.65948 11.2088C6.63301 8.37988 9.1919 6.89648 11.7555 6.89648C14.7662 6.89648 17.3598 8.85791 18.8899 11.2212L18.8906 11.2223C18.9919 11.3796 19.0457 11.5628 19.0457 11.7499C19.0457 11.9366 18.9921 12.1195 18.8912 12.2766C17.3624 14.6703 14.7856 16.6024 11.7555 16.6024C8.69305 16.6024 6.16597 14.6743 4.64091 12.2876C4.53728 12.1267 4.48353 11.9387 4.48644 11.7473C4.48936 11.5555 4.54908 11.3688 4.65806 11.2108L4.65948 11.2088ZM5.45692 11.7621L5.45826 11.7642C6.86687 13.9691 9.12453 15.6318 11.7555 15.6318C14.3569 15.6318 16.6633 13.9621 18.0735 11.7536L18.0745 11.7522C18.0749 11.7515 18.0751 11.7507 18.0751 11.7499C18.0751 11.7495 18.0751 11.7492 18.075 11.7489C18.0749 11.7485 18.0747 11.7481 18.0745 11.7477C16.6589 9.56182 14.3337 7.86707 11.7555 7.86707C9.59159 7.86707 7.3012 9.11949 5.45692 11.7621ZM11.7658 9.80825C10.6937 9.80825 9.82459 10.6773 9.82459 11.7494C9.82459 12.8215 10.6937 13.6906 11.7658 13.6906C12.8379 13.6906 13.7069 12.8215 13.7069 11.7494C13.7069 10.6773 12.8379 9.80825 11.7658 9.80825ZM8.85401 11.7494C8.85401 10.1413 10.1576 8.83766 11.7658 8.83766C13.3739 8.83766 14.6775 10.1413 14.6775 11.7494C14.6775 13.3576 13.3739 14.6612 11.7658 14.6612C10.1576 14.6612 8.85401 13.3576 8.85401 11.7494Z" fill="#29d79f"/>
</g>
<defs>
<clipPath id="clip0_576_10077">
<rect width="15.5294" height="15.5294" fill="white" transform="translate(4.00195 3.98438)"/>
</clipPath>
</defs>
</svg>
