<svg width="16" height="16" viewBox="0 0 16 16" fill="none" xmlns="http://www.w3.org/2000/svg">
<path fill-rule="evenodd" clip-rule="evenodd" d="M0.677907 7.44298C2.71124 4.52834 5.34768 3 7.98892 3C11.0909 3 13.7631 5.02086 15.3396 7.45575L15.3403 7.4569C15.4446 7.619 15.5001 7.8077 15.5001 8.00047C15.5001 8.19289 15.4448 8.38125 15.3409 8.54315C13.7657 11.0094 11.1109 13 7.98892 13C4.83371 13 2.23005 11.0135 0.658773 8.55448C0.552007 8.38869 0.496631 8.19503 0.499627 7.99784C0.502631 7.80016 0.564162 7.60781 0.676446 7.44509L0.677907 7.44298ZM1.49952 8.01304L1.5009 8.0152C2.95219 10.287 5.27827 12 7.98892 12C10.6692 12 13.0454 10.2797 14.4985 8.00433L14.4994 8.00284C14.4999 8.00213 14.5001 8.00131 14.5001 8.00047C14.5001 8.00012 14.5001 7.99977 14.5 7.99943C14.4999 7.999 14.4997 7.99858 14.4995 7.9982C13.0409 5.7461 10.6452 4 7.98892 4C5.75948 4 3.39968 5.29037 1.49952 8.01304ZM7.99954 6C6.89497 6 5.99954 6.89543 5.99954 8C5.99954 9.10457 6.89497 10 7.99954 10C9.10411 10 9.99954 9.10457 9.99954 8C9.99954 6.89543 9.10411 6 7.99954 6ZM4.99954 8C4.99954 6.34315 6.34269 5 7.99954 5C9.6564 5 10.9995 6.34315 10.9995 8C10.9995 9.65685 9.6564 11 7.99954 11C6.34269 11 4.99954 9.65685 4.99954 8Z" fill="#29d79f"/>
</svg>
