<svg width="154" height="112" viewBox="0 0 154 112" fill="none" xmlns="http://www.w3.org/2000/svg">
<ellipse opacity="0.5" cx="80.6004" cy="105.2" rx="73.2" ry="6" fill="#252629"/>
<mask id="path-2-inside-1_26_1589" fill="white">
<path fill-rule="evenodd" clip-rule="evenodd" d="M51.8641 0.799929L45.7634 6.08332L39.6626 0.799929L39.5991 0.79993C39.5991 0.79993 49.308 73.2444 27.2712 104.707C23.4191 110.206 17.585 111.751 17.585 111.751H107.403C107.403 111.751 111.476 111.967 115.328 106.468C137.365 75.0055 129.417 0.79993 129.417 0.79993L129.118 0.799929L121.492 6.08332L113.867 0.799929H113.505L107.404 6.08332L101.303 0.799929H101.176L95.0753 6.08332L88.9746 0.799929H88.8487L82.748 6.08332L76.6472 0.799929H76.5201L70.4193 6.08332L64.3186 0.799929H64.1927L58.092 6.08332L51.9912 0.799929H51.8641Z"/>
</mask>
<path fill-rule="evenodd" clip-rule="evenodd" d="M51.8641 0.799929L45.7634 6.08332L39.6626 0.799929L39.5991 0.79993C39.5991 0.79993 49.308 73.2444 27.2712 104.707C23.4191 110.206 17.585 111.751 17.585 111.751H107.403C107.403 111.751 111.476 111.967 115.328 106.468C137.365 75.0055 129.417 0.79993 129.417 0.79993L129.118 0.799929L121.492 6.08332L113.867 0.799929H113.505L107.404 6.08332L101.303 0.799929H101.176L95.0753 6.08332L88.9746 0.799929H88.8487L82.748 6.08332L76.6472 0.799929H76.5201L70.4193 6.08332L64.3186 0.799929H64.1927L58.092 6.08332L51.9912 0.799929H51.8641Z" fill="#CAE2E0"/>
<path d="M45.7634 6.08332L45.1087 6.83925L45.7634 7.40619L46.418 6.83925L45.7634 6.08332ZM51.8641 0.799929V-0.200071H51.4913L51.2094 0.0439996L51.8641 0.799929ZM39.6626 0.799929L40.3173 0.0439996L40.0354 -0.200081L39.6626 -0.200071L39.6626 0.799929ZM39.5991 0.79993L39.5991 -0.20007L38.4561 -0.20004L38.6079 0.932762L39.5991 0.79993ZM27.2712 104.707L26.4521 104.133L26.4521 104.133L27.2712 104.707ZM17.585 111.751L17.329 110.784L17.585 112.751V111.751ZM107.403 111.751L107.456 110.753L107.429 110.751H107.403V111.751ZM115.328 106.468L114.509 105.894L114.509 105.894L115.328 106.468ZM129.417 0.79993L130.411 0.693434L130.315 -0.200065L129.417 -0.20007L129.417 0.79993ZM129.118 0.799929L129.118 -0.200071L128.806 -0.200073L128.549 -0.0220663L129.118 0.799929ZM121.492 6.08332L120.923 6.90531L121.492 7.29987L122.062 6.90531L121.492 6.08332ZM113.867 0.799929L114.436 -0.0220663L114.179 -0.200071H113.867V0.799929ZM113.505 0.799929V-0.200071H113.132L112.85 0.0439993L113.505 0.799929ZM107.404 6.08332L106.749 6.83925L107.404 7.40619L108.059 6.83925L107.404 6.08332ZM101.303 0.799929L101.958 0.0439993L101.676 -0.200071H101.303V0.799929ZM101.176 0.799929V-0.200071H100.803L100.521 0.0439997L101.176 0.799929ZM95.0753 6.08332L94.4207 6.83925L95.0753 7.40619L95.73 6.83925L95.0753 6.08332ZM88.9746 0.799929L89.6292 0.0439997L89.3474 -0.200071H88.9746V0.799929ZM88.8487 0.799929V-0.200071H88.4759L88.194 0.0439997L88.8487 0.799929ZM82.748 6.08332L82.0933 6.83925L82.748 7.40619L83.4026 6.83925L82.748 6.08332ZM76.6472 0.799929L77.3019 0.0439997L77.0201 -0.200071H76.6472V0.799929ZM76.5201 0.799929V-0.200071H76.1472L75.8654 0.0439997L76.5201 0.799929ZM70.4193 6.08332L69.7647 6.83925L70.4193 7.40619L71.074 6.83925L70.4193 6.08332ZM64.3186 0.799929L64.9733 0.0439997L64.6914 -0.200071H64.3186V0.799929ZM64.1927 0.799929V-0.200071H63.8199L63.5381 0.0439997L64.1927 0.799929ZM58.092 6.08332L57.4373 6.83925L58.092 7.40619L58.7466 6.83925L58.092 6.08332ZM51.9912 0.799929L52.6459 0.0439997L52.3641 -0.200071H51.9912V0.799929ZM46.418 6.83925L52.5187 1.55586L51.2094 0.0439996L45.1087 5.32739L46.418 6.83925ZM39.008 1.55586L45.1087 6.83925L46.418 5.32739L40.3173 0.0439996L39.008 1.55586ZM39.5991 1.79993L39.6627 1.79993L39.6626 -0.200071L39.5991 -0.20007L39.5991 1.79993ZM28.0902 105.28C33.7131 97.2525 37.2741 86.6713 39.4757 75.3896C41.6796 64.0959 42.5346 52.0272 42.6988 40.9698C42.8631 29.909 42.3363 19.8383 41.7688 12.5335C41.4849 8.88042 41.1908 5.91732 40.9673 3.86595C40.8556 2.84023 40.7616 2.04234 40.6954 1.49998C40.6622 1.22881 40.6361 1.0215 40.6181 0.881535C40.6092 0.811551 40.6022 0.758401 40.5975 0.722518C40.5952 0.704576 40.5934 0.690951 40.5922 0.681697C40.5915 0.677069 40.5911 0.673535 40.5908 0.6711C40.5906 0.669882 40.5905 0.668882 40.5904 0.668272C40.5903 0.667548 40.5902 0.667099 39.5991 0.79993C38.6079 0.932762 38.608 0.932866 38.608 0.933245C38.6081 0.933739 38.6082 0.934394 38.6083 0.93538C38.6086 0.937353 38.609 0.940424 38.6095 0.944586C38.6106 0.95291 38.6123 0.965598 38.6145 0.982597C38.619 1.01659 38.6257 1.06783 38.6344 1.13588C38.6518 1.27198 38.6775 1.47531 38.7101 1.74241C38.7753 2.27662 38.8684 3.06587 38.9791 4.0825C39.2006 6.11584 39.4927 9.05826 39.7748 12.6884C40.339 19.9502 40.8622 29.957 40.6991 40.9401C40.5359 51.9265 39.6863 63.8681 37.5127 75.0065C35.3368 86.1568 31.8477 96.4295 26.4521 104.133L28.0902 105.28ZM17.585 111.751C17.8409 112.718 17.8413 112.718 17.8417 112.718C17.8418 112.718 17.8422 112.717 17.8426 112.717C17.8432 112.717 17.8439 112.717 17.8447 112.717C17.8463 112.716 17.8483 112.716 17.8506 112.715C17.8553 112.714 17.8614 112.712 17.8688 112.71C17.8837 112.706 17.9041 112.7 17.9298 112.693C17.9812 112.678 18.0537 112.656 18.1455 112.627C18.329 112.569 18.5897 112.481 18.912 112.359C19.5562 112.114 20.4499 111.729 21.4678 111.166C23.5 110.041 26.0536 108.188 28.0902 105.28L26.4521 104.133C24.6367 106.725 22.3472 108.394 20.4993 109.416C19.5771 109.927 18.7716 110.272 18.2014 110.489C17.9167 110.597 17.6915 110.673 17.5408 110.721C17.4656 110.745 17.409 110.762 17.373 110.772C17.3551 110.777 17.3422 110.781 17.3348 110.783C17.3311 110.784 17.3287 110.784 17.3278 110.785C17.3273 110.785 17.3271 110.785 17.3273 110.785C17.3274 110.785 17.3276 110.785 17.3279 110.785C17.328 110.785 17.3283 110.785 17.3284 110.785C17.3287 110.784 17.329 110.784 17.585 111.751ZM107.403 110.751H17.585V112.751H107.403V110.751ZM114.509 105.894C112.687 108.495 110.853 109.693 109.532 110.251C108.866 110.531 108.319 110.655 107.952 110.71C107.769 110.737 107.63 110.747 107.545 110.75C107.502 110.752 107.472 110.752 107.457 110.752C107.45 110.752 107.446 110.752 107.445 110.752C107.445 110.752 107.446 110.752 107.448 110.752C107.448 110.752 107.45 110.752 107.451 110.752C107.452 110.752 107.452 110.752 107.453 110.752C107.453 110.752 107.454 110.752 107.454 110.752C107.455 110.752 107.456 110.753 107.403 111.751C107.35 112.75 107.35 112.75 107.351 112.75C107.351 112.75 107.352 112.75 107.352 112.75C107.354 112.75 107.355 112.75 107.356 112.75C107.358 112.75 107.361 112.75 107.364 112.75C107.369 112.751 107.376 112.751 107.384 112.751C107.399 112.752 107.418 112.752 107.441 112.752C107.488 112.753 107.55 112.752 107.626 112.749C107.778 112.743 107.988 112.726 108.246 112.688C108.763 112.611 109.475 112.445 110.31 112.093C111.988 111.384 114.116 109.94 116.147 107.041L114.509 105.894ZM129.417 0.79993C128.422 0.906427 128.422 0.906545 128.422 0.906946C128.422 0.907456 128.423 0.908138 128.423 0.909157C128.423 0.911194 128.423 0.914356 128.424 0.918635C128.425 0.927194 128.426 0.940223 128.428 0.957667C128.431 0.992555 128.437 1.0451 128.444 1.11486C128.458 1.25438 128.479 1.46274 128.505 1.73639C128.558 2.28369 128.632 3.09206 128.719 4.13298C128.892 6.2149 129.116 9.2266 129.316 12.9399C129.715 20.3678 130.019 30.5962 129.637 41.8014C129.254 53.0097 128.185 65.1744 125.847 76.4815C123.505 87.8014 119.906 98.1876 114.509 105.894L116.147 107.041C121.767 99.0167 125.439 88.3289 127.805 76.8865C130.174 65.4313 131.25 53.1454 131.635 41.8696C132.021 30.5906 131.715 20.3012 131.313 12.8324C131.112 9.09732 130.887 6.06592 130.712 3.96682C130.624 2.91723 130.549 2.10062 130.496 1.54556C130.469 1.26803 130.448 1.05587 130.434 0.91266C130.426 0.841056 130.421 0.786687 130.417 0.750001C130.415 0.731658 130.414 0.717735 130.413 0.708289C130.412 0.703566 130.412 0.699962 130.411 0.697483C130.411 0.696244 130.411 0.695232 130.411 0.694612C130.411 0.693882 130.411 0.693434 129.417 0.79993ZM129.118 1.79993L129.417 1.79993L129.417 -0.20007L129.118 -0.200071L129.118 1.79993ZM128.549 -0.0220663L120.923 5.26132L122.062 6.90531L129.688 1.62192L128.549 -0.0220663ZM122.062 5.26132L114.436 -0.0220663L113.297 1.62192L120.923 6.90531L122.062 5.26132ZM113.505 1.79993H113.867V-0.200071H113.505V1.79993ZM108.059 6.83925L114.159 1.55586L112.85 0.0439993L106.749 5.32739L108.059 6.83925ZM100.649 1.55586L106.749 6.83925L108.059 5.32739L101.958 0.0439993L100.649 1.55586ZM101.176 1.79993H101.303V-0.200071H101.176V1.79993ZM100.521 0.0439997L94.4207 5.32739L95.73 6.83925L101.831 1.55586L100.521 0.0439997ZM95.73 5.32739L89.6292 0.0439997L88.3199 1.55586L94.4207 6.83925L95.73 5.32739ZM88.8487 1.79993H88.9746V-0.200071H88.8487V1.79993ZM83.4026 6.83925L89.5033 1.55586L88.194 0.0439997L82.0933 5.32739L83.4026 6.83925ZM75.9926 1.55586L82.0933 6.83925L83.4026 5.32739L77.3019 0.0439997L75.9926 1.55586ZM76.5201 1.79993H76.6472V-0.200071H76.5201V1.79993ZM75.8654 0.0439997L69.7647 5.32739L71.074 6.83925L77.1747 1.55586L75.8654 0.0439997ZM71.074 5.32739L64.9733 0.0439997L63.664 1.55586L69.7647 6.83925L71.074 5.32739ZM64.1927 1.79993H64.3186V-0.200071H64.1927V1.79993ZM58.7466 6.83925L64.8474 1.55586L63.5381 0.0439997L57.4373 5.32739L58.7466 6.83925ZM51.3366 1.55586L57.4373 6.83925L58.7466 5.32739L52.6459 0.0439997L51.3366 1.55586ZM51.8641 1.79993H51.9912V-0.200071H51.8641V1.79993Z" fill="#195D57" mask="url(#path-2-inside-1_26_1589)"/>
<path opacity="0.11" d="M14.9503 80.604H94.4592C94.4592 80.604 90.9475 83.8827 92.202 94.5385C93.6503 106.84 97.7379 111.752 97.7379 111.752H23.7588C23.7588 111.752 10.043 106.84 8.59476 94.5385C7.76014 87.4495 14.9503 80.604 14.9503 80.604Z" fill="#1A4C3C"/>
<path d="M1.74597 75.2H92.2323C92.2323 75.2 89.9983 85.7869 90.9016 93.2C92.469 106.063 108.2 111.2 108.2 111.2H16.827C16.827 111.2 1.98273 106.063 0.415288 93.2C-0.488013 85.7869 1.74597 75.2 1.74597 75.2Z" fill="#1A4C3C"/>
<path d="M51.4435 24.1588C51.7316 23.1194 52.6777 22.3999 53.7563 22.3999H102.645C104.231 22.3999 105.381 23.912 104.958 25.441V25.441C104.67 26.4804 103.723 27.1999 102.645 27.1999H53.7563C52.1697 27.1999 51.0197 25.6878 51.4435 24.1588V24.1588Z" fill="#195D57"/>
<path d="M49.1005 33.7255C49.4 32.7028 50.3381 32 51.4038 32H66.5966C68.1977 32 69.3499 33.5379 68.8999 35.0745V35.0745C68.6004 36.0972 67.6623 36.8 66.5966 36.8H51.4038C49.8027 36.8 48.6505 35.2621 49.1005 33.7255V33.7255Z" fill="#195D57"/>
<path fill-rule="evenodd" clip-rule="evenodd" d="M96.9218 51.895C96.7494 51.406 97.0061 50.8699 97.495 50.6976L104.577 48.2006L102.08 41.1185C101.908 40.6295 102.164 40.0935 102.653 39.9211C103.142 39.7487 103.678 40.0053 103.851 40.4942L106.348 47.5764L113.43 45.0795C113.919 44.9071 114.455 45.1637 114.627 45.6527C114.8 46.1416 114.543 46.6777 114.054 46.85L106.972 49.347L109.469 56.4291C109.641 56.9181 109.385 57.4542 108.896 57.6265C108.407 57.7989 107.871 57.5423 107.698 57.0534L105.201 49.9712L98.1192 52.4681C97.6303 52.6405 97.0942 52.3839 96.9218 51.895Z" fill="#195D57"/>
<path fill-rule="evenodd" clip-rule="evenodd" d="M118.074 63.9726C118.225 63.5459 118.728 63.3347 119.198 63.5009L134.496 68.918C134.966 69.0842 135.224 69.5649 135.073 69.9916C134.922 70.4183 134.419 70.6295 133.949 70.4633L118.65 65.0462C118.181 64.88 117.923 64.3994 118.074 63.9726Z" fill="#195D57"/>
</svg>
